<?xml version="1.0" encoding="UTF-8" standalone="yes"?><svg xmlns="http://www.w3.org/2000/svg" xmlns:xlink="http://www.w3.org/1999/xlink" height="316pt" style="width:646px;height:316px;" version="1.1" viewBox="0 0 646 316" width="646pt"><defs><filter height="300%" id="f1" width="300%" x="-1" y="-1"><feGaussianBlur result="blurOut" stdDeviation="2"/><feColorMatrix in="blurOut" result="blurOut2" type="matrix" values="0 0 0 0 0 0 0 0 0 0 0 0 0 0 0 0 0 0 .4 0"/><feOffset dx="4" dy="4" in="blurOut2" result="blurOut3"/><feBlend in="SourceGraphic" in2="blurOut3" mode="normal"/></filter></defs><g><a xlink:href="LMI_LVAllocatedFromStoragePool.html" xlink:title="LMI_LVAllocatedFromStoragePool.html"><rect fill="#FEFECE" filter="url(#f1)" height="44" style="stroke: #A80036; stroke-width: 1.5;" width="194" x="6" y="188"/><ellipse cx="19" cy="202" fill="#ADD1B2" rx="9" ry="9" style="stroke: #A80036; stroke-width: 1.0;"/><path d="M20.2813,205.2969 Q19.9375,205.4688 19.5625,205.5547 Q19.1875,205.6406 18.7656,205.6406 Q17.2969,205.6406 16.5234,204.6719 Q15.75,203.7031 15.75,201.8594 Q15.75,200.0156 16.5234,199.0469 Q17.2969,198.0781 18.7656,198.0781 Q19.1875,198.0781 19.5703,198.1641 Q19.9531,198.25 20.2813,198.4219 L20.2813,200.0313 Q19.9063,199.6875 19.5547,199.5313 Q19.2031,199.375 18.8438,199.375 Q18.0469,199.375 17.6406,200 Q17.2344,200.625 17.2344,201.8594 Q17.2344,203.0938 17.6406,203.7188 Q18.0469,204.3438 18.8438,204.3438 Q19.2031,204.3438 19.5547,204.1875 Q19.9063,204.0313 20.2813,203.6875 L20.2813,205.2969 Z "/><text fill="#000000" font-family="Monospace" font-size="10" lengthAdjust="spacingAndGlyphs" textLength="166" x="31" y="206.1797">LMI_LVAllocatedFromStoragePool</text><line style="stroke: #A80036; stroke-width: 1.5;" x1="7" x2="199" y1="216" y2="216"/><line style="stroke: #A80036; stroke-width: 1.5;" x1="7" x2="199" y1="224" y2="224"/></a><rect fill="#FEFECE" filter="url(#f1)" height="44" style="stroke: #A80036; stroke-width: 1.5;" width="183" x="126.75" y="8"/><ellipse cx="139.75" cy="22" fill="#ADD1B2" rx="9" ry="9" style="stroke: #A80036; stroke-width: 1.0;"/><path d="M141.0313,25.2969 Q140.6875,25.4688 140.3125,25.5547 Q139.9375,25.6406 139.5156,25.6406 Q138.0469,25.6406 137.2734,24.6719 Q136.5,23.7031 136.5,21.8594 Q136.5,20.0156 137.2734,19.0469 Q138.0469,18.0781 139.5156,18.0781 Q139.9375,18.0781 140.3203,18.1641 Q140.7031,18.25 141.0313,18.4219 L141.0313,20.0313 Q140.6563,19.6875 140.3047,19.5313 Q139.9531,19.375 139.5938,19.375 Q138.7969,19.375 138.3906,20 Q137.9844,20.625 137.9844,21.8594 Q137.9844,23.0938 138.3906,23.7188 Q138.7969,24.3438 139.5938,24.3438 Q139.9531,24.3438 140.3047,24.1875 Q140.6563,24.0313 141.0313,23.6875 L141.0313,25.2969 Z "/><text fill="#000000" font-family="Monospace" font-size="10" lengthAdjust="spacingAndGlyphs" textLength="155" x="151.75" y="26.1797">CIM_AllocatedFromStoragePool</text><line style="stroke: #A80036; stroke-width: 1.5;" x1="127.75" x2="308.75" y1="36" y2="36"/><line style="stroke: #A80036; stroke-width: 1.5;" x1="127.75" x2="308.75" y1="44" y2="44"/><a xlink:href="LMI_VGStoragePool.html" xlink:title="LMI_VGStoragePool.html"><rect fill="#FEFECE" filter="url(#f1)" height="195.3281" style="stroke: #A80036; stroke-width: 1.5;" width="171" x="466.75" y="112.5"/><ellipse cx="500" cy="126.5" fill="#ADD1B2" rx="9" ry="9" style="stroke: #A80036; stroke-width: 1.0;"/><path d="M501.2813,129.7969 Q500.9375,129.9688 500.5625,130.0547 Q500.1875,130.1406 499.7656,130.1406 Q498.2969,130.1406 497.5234,129.1719 Q496.75,128.2031 496.75,126.3594 Q496.75,124.5156 497.5234,123.5469 Q498.2969,122.5781 499.7656,122.5781 Q500.1875,122.5781 500.5703,122.6641 Q500.9531,122.75 501.2813,122.9219 L501.2813,124.5313 Q500.9063,124.1875 500.5547,124.0313 Q500.2031,123.875 499.8438,123.875 Q499.0469,123.875 498.6406,124.5 Q498.2344,125.125 498.2344,126.3594 Q498.2344,127.5938 498.6406,128.2188 Q499.0469,128.8438 499.8438,128.8438 Q500.2031,128.8438 500.5547,128.6875 Q500.9063,128.5313 501.2813,128.1875 L501.2813,129.7969 Z "/><text fill="#000000" font-family="Monospace" font-size="10" lengthAdjust="spacingAndGlyphs" textLength="98" x="516.5" y="130.6797">LMI_VGStoragePool</text><line style="stroke: #A80036; stroke-width: 1.5;" x1="467.75" x2="636.75" y1="140.5" y2="140.5"/><text fill="#000000" font-family="Monospace" font-size="10" lengthAdjust="spacingAndGlyphs" textLength="101" x="472.75" y="154.5">string ElementName</text><text fill="#000000" font-family="Monospace" font-size="10" lengthAdjust="spacingAndGlyphs" textLength="86" x="472.75" y="166.1406">uint64 ExtentSize</text><text fill="#000000" font-family="Monospace" font-size="10" lengthAdjust="spacingAndGlyphs" textLength="82" x="472.75" y="177.7813">string InstanceID</text><text fill="#000000" font-family="Monospace" font-size="10" lengthAdjust="spacingAndGlyphs" textLength="60" x="472.75" y="189.4219">string Name</text><text fill="#000000" font-family="Monospace" font-size="10" lengthAdjust="spacingAndGlyphs" textLength="62" x="472.75" y="201.0625">string PoolID</text><text fill="#000000" font-family="Monospace" font-size="10" lengthAdjust="spacingAndGlyphs" textLength="90" x="472.75" y="212.7031">boolean Primordial</text><text fill="#000000" font-family="Monospace" font-size="10" lengthAdjust="spacingAndGlyphs" textLength="122" x="472.75" y="224.3438">uint64 RemainingExtents</text><text fill="#000000" font-family="Monospace" font-size="10" lengthAdjust="spacingAndGlyphs" textLength="159" x="472.75" y="235.9844">uint64 RemainingManagedSpace</text><text fill="#000000" font-family="Monospace" font-size="10" lengthAdjust="spacingAndGlyphs" textLength="94" x="472.75" y="247.625">uint64 TotalExtents</text><text fill="#000000" font-family="Monospace" font-size="10" lengthAdjust="spacingAndGlyphs" textLength="131" x="472.75" y="259.2656">uint64 TotalManagedSpace</text><text fill="#000000" font-family="Monospace" font-size="10" lengthAdjust="spacingAndGlyphs" textLength="57" x="472.75" y="270.9063">string UUID</text><line style="stroke: #A80036; stroke-width: 1.5;" x1="467.75" x2="636.75" y1="276.5469" y2="276.5469"/><text fill="#000000" font-family="Monospace" font-size="10" lengthAdjust="spacingAndGlyphs" textLength="128" x="472.75" y="290.5469">GetSupportedSizeRange()</text><text fill="#000000" font-family="Monospace" font-size="10" lengthAdjust="spacingAndGlyphs" textLength="102" x="472.75" y="302.1875">GetSupportedSizes()</text></a><rect fill="#FEFECE" filter="url(#f1)" height="44" style="stroke: #A80036; stroke-width: 1.5;" width="113" x="495.75" y="8"/><ellipse cx="508.75" cy="22" fill="#ADD1B2" rx="9" ry="9" style="stroke: #A80036; stroke-width: 1.0;"/><path d="M510.0313,25.2969 Q509.6875,25.4688 509.3125,25.5547 Q508.9375,25.6406 508.5156,25.6406 Q507.0469,25.6406 506.2734,24.6719 Q505.5,23.7031 505.5,21.8594 Q505.5,20.0156 506.2734,19.0469 Q507.0469,18.0781 508.5156,18.0781 Q508.9375,18.0781 509.3203,18.1641 Q509.7031,18.25 510.0313,18.4219 L510.0313,20.0313 Q509.6563,19.6875 509.3047,19.5313 Q508.9531,19.375 508.5938,19.375 Q507.7969,19.375 507.3906,20 Q506.9844,20.625 506.9844,21.8594 Q506.9844,23.0938 507.3906,23.7188 Q507.7969,24.3438 508.5938,24.3438 Q508.9531,24.3438 509.3047,24.1875 Q509.6563,24.0313 510.0313,23.6875 L510.0313,25.2969 Z "/><text fill="#000000" font-family="Monospace" font-size="10" lengthAdjust="spacingAndGlyphs" textLength="85" x="520.75" y="26.1797">CIM_StoragePool</text><line style="stroke: #A80036; stroke-width: 1.5;" x1="496.75" x2="607.75" y1="36" y2="36"/><line style="stroke: #A80036; stroke-width: 1.5;" x1="496.75" x2="607.75" y1="44" y2="44"/><a xlink:href="LMI_VGAllocatedFromStoragePool.html" xlink:title="LMI_VGAllocatedFromStoragePool.html"><rect fill="#FEFECE" filter="url(#f1)" height="44" style="stroke: #A80036; stroke-width: 1.5;" width="196" x="235" y="188"/><ellipse cx="248" cy="202" fill="#ADD1B2" rx="9" ry="9" style="stroke: #A80036; stroke-width: 1.0;"/><path d="M249.2813,205.2969 Q248.9375,205.4688 248.5625,205.5547 Q248.1875,205.6406 247.7656,205.6406 Q246.2969,205.6406 245.5234,204.6719 Q244.75,203.7031 244.75,201.8594 Q244.75,200.0156 245.5234,199.0469 Q246.2969,198.0781 247.7656,198.0781 Q248.1875,198.0781 248.5703,198.1641 Q248.9531,198.25 249.2813,198.4219 L249.2813,200.0313 Q248.9063,199.6875 248.5547,199.5313 Q248.2031,199.375 247.8438,199.375 Q247.0469,199.375 246.6406,200 Q246.2344,200.625 246.2344,201.8594 Q246.2344,203.0938 246.6406,203.7188 Q247.0469,204.3438 247.8438,204.3438 Q248.2031,204.3438 248.5547,204.1875 Q248.9063,204.0313 249.2813,203.6875 L249.2813,205.2969 Z "/><text fill="#000000" font-family="Monospace" font-size="10" lengthAdjust="spacingAndGlyphs" textLength="168" x="260" y="206.1797">LMI_VGAllocatedFromStoragePool</text><line style="stroke: #A80036; stroke-width: 1.5;" x1="236" x2="430" y1="216" y2="216"/><line style="stroke: #A80036; stroke-width: 1.5;" x1="236" x2="430" y1="224" y2="224"/></a><path d="M193.229,69.341 C169.787,105.625 135.464,158.752 116.626,187.91 " fill="none" style="stroke: #A80036; stroke-width: 1.0;"/><polygon fill="none" points="187.623,65.118,204.356,52.118,199.383,72.716,187.623,65.118" style="stroke: #A80036; stroke-width: 1.0;"/><path d="M552,72.372 C552,84.469 552,98.23 552,112.25 " fill="none" style="stroke: #A80036; stroke-width: 1.0;"/><polygon fill="none" points="545,72.118,552,52.118,559,72.118,545,72.118" style="stroke: #A80036; stroke-width: 1.0;"/><path d="M242.771,69.341 C266.213,105.625 300.536,158.752 319.374,187.91 " fill="none" style="stroke: #A80036; stroke-width: 1.0;"/><polygon fill="none" points="236.617,72.716,231.644,52.118,248.377,65.118,236.617,72.716" style="stroke: #A80036; stroke-width: 1.0;"/></g></svg>