<?xml version="1.0" encoding="UTF-8" standalone="yes"?><svg xmlns="http://www.w3.org/2000/svg" xmlns:xlink="http://www.w3.org/1999/xlink" height="770pt" style="width:1051px;height:770px;" version="1.1" viewBox="0 0 1051 770" width="1051pt"><defs><filter height="300%" id="f1" width="300%" x="-1" y="-1"><feGaussianBlur result="blurOut" stdDeviation="2"/><feColorMatrix in="blurOut" result="blurOut2" type="matrix" values="0 0 0 0 0 0 0 0 0 0 0 0 0 0 0 0 0 0 .4 0"/><feOffset dx="4" dy="4" in="blurOut2" result="blurOut3"/><feBlend in="SourceGraphic" in2="blurOut3" mode="normal"/></filter></defs><g><rect fill="#FEFECE" filter="url(#f1)" height="44" style="stroke: #A80036; stroke-width: 1.5;" width="136" x="96" y="8"/><ellipse cx="109" cy="22" fill="#ADD1B2" rx="9" ry="9" style="stroke: #A80036; stroke-width: 1.0;"/><path d="M110.2813,25.2969 Q109.9375,25.4688 109.5625,25.5547 Q109.1875,25.6406 108.7656,25.6406 Q107.2969,25.6406 106.5234,24.6719 Q105.75,23.7031 105.75,21.8594 Q105.75,20.0156 106.5234,19.0469 Q107.2969,18.0781 108.7656,18.0781 Q109.1875,18.0781 109.5703,18.1641 Q109.9531,18.25 110.2813,18.4219 L110.2813,20.0313 Q109.9063,19.6875 109.5547,19.5313 Q109.2031,19.375 108.8438,19.375 Q108.0469,19.375 107.6406,20 Q107.2344,20.625 107.2344,21.8594 Q107.2344,23.0938 107.6406,23.7188 Q108.0469,24.3438 108.8438,24.3438 Q109.2031,24.3438 109.5547,24.1875 Q109.9063,24.0313 110.2813,23.6875 L110.2813,25.2969 Z "/><text fill="#000000" font-family="Courier" font-size="10" lengthAdjust="spacingAndGlyphs" textLength="108" x="121" y="26.1797">CIM_ComputerSystem</text><line style="stroke: #A80036; stroke-width: 1.5;" x1="97" x2="231" y1="36" y2="36"/><line style="stroke: #A80036; stroke-width: 1.5;" x1="97" x2="231" y1="44" y2="44"/><rect fill="#FEFECE" filter="url(#f1)" height="44" style="stroke: #A80036; stroke-width: 1.5;" width="136" x="597" y="462"/><ellipse cx="610" cy="476" fill="#ADD1B2" rx="9" ry="9" style="stroke: #A80036; stroke-width: 1.0;"/><path d="M611.2813,479.2969 Q610.9375,479.4688 610.5625,479.5547 Q610.1875,479.6406 609.7656,479.6406 Q608.2969,479.6406 607.5234,478.6719 Q606.75,477.7031 606.75,475.8594 Q606.75,474.0156 607.5234,473.0469 Q608.2969,472.0781 609.7656,472.0781 Q610.1875,472.0781 610.5703,472.1641 Q610.9531,472.25 611.2813,472.4219 L611.2813,474.0313 Q610.9063,473.6875 610.5547,473.5313 Q610.2031,473.375 609.8438,473.375 Q609.0469,473.375 608.6406,474 Q608.2344,474.625 608.2344,475.8594 Q608.2344,477.0938 608.6406,477.7188 Q609.0469,478.3438 609.8438,478.3438 Q610.2031,478.3438 610.5547,478.1875 Q610.9063,478.0313 611.2813,477.6875 L611.2813,479.2969 Z "/><text fill="#000000" font-family="Courier" font-size="10" lengthAdjust="spacingAndGlyphs" textLength="108" x="622" y="480.1797">CIM_ManagedElement</text><line style="stroke: #A80036; stroke-width: 1.5;" x1="598" x2="732" y1="490" y2="490"/><line style="stroke: #A80036; stroke-width: 1.5;" x1="598" x2="732" y1="498" y2="498"/><rect fill="#FEFECE" filter="url(#f1)" height="44" style="stroke: #A80036; stroke-width: 1.5;" width="136" x="597" y="578"/><ellipse cx="610" cy="592" fill="#1E90FF" rx="9" ry="9" style="stroke: #A80036; stroke-width: 1.0;"/><path d="M611.2813,595.2969 Q610.9375,595.4688 610.5625,595.5547 Q610.1875,595.6406 609.7656,595.6406 Q608.2969,595.6406 607.5234,594.6719 Q606.75,593.7031 606.75,591.8594 Q606.75,590.0156 607.5234,589.0469 Q608.2969,588.0781 609.7656,588.0781 Q610.1875,588.0781 610.5703,588.1641 Q610.9531,588.25 611.2813,588.4219 L611.2813,590.0313 Q610.9063,589.6875 610.5547,589.5313 Q610.2031,589.375 609.8438,589.375 Q609.0469,589.375 608.6406,590 Q608.2344,590.625 608.2344,591.8594 Q608.2344,593.0938 608.6406,593.7188 Q609.0469,594.3438 609.8438,594.3438 Q610.2031,594.3438 610.5547,594.1875 Q610.9063,594.0313 611.2813,593.6875 L611.2813,595.2969 Z "/><text fill="#000000" font-family="Courier" font-size="10" lengthAdjust="spacingAndGlyphs" textLength="108" x="622" y="596.1797">LMI_SELinuxElement</text><line style="stroke: #A80036; stroke-width: 1.5;" x1="598" x2="732" y1="606" y2="606"/><line style="stroke: #A80036; stroke-width: 1.5;" x1="598" x2="732" y1="614" y2="614"/><rect fill="#FEFECE" filter="url(#f1)" height="67.2813" style="stroke: #A80036; stroke-width: 1.5;" width="138" x="508" y="688.5"/><ellipse cx="521.9" cy="702.5" fill="#1E90FF" rx="9" ry="9" style="stroke: #A80036; stroke-width: 1.0;"/><path d="M523.1813,705.7969 Q522.8375,705.9688 522.4625,706.0547 Q522.0875,706.1406 521.6656,706.1406 Q520.1969,706.1406 519.4234,705.1719 Q518.65,704.2031 518.65,702.3594 Q518.65,700.5156 519.4234,699.5469 Q520.1969,698.5781 521.6656,698.5781 Q522.0875,698.5781 522.4703,698.6641 Q522.8531,698.75 523.1813,698.9219 L523.1813,700.5313 Q522.8063,700.1875 522.4547,700.0313 Q522.1031,699.875 521.7438,699.875 Q520.9469,699.875 520.5406,700.5 Q520.1344,701.125 520.1344,702.3594 Q520.1344,703.5938 520.5406,704.2188 Q520.9469,704.8438 521.7438,704.8438 Q522.1031,704.8438 522.4547,704.6875 Q522.8063,704.5313 523.1813,704.1875 L523.1813,705.7969 Z "/><text fill="#000000" font-family="Courier" font-size="10" lengthAdjust="spacingAndGlyphs" textLength="108" x="534.1" y="706.6797">LMI_SELinuxBoolean</text><line style="stroke: #A80036; stroke-width: 1.5;" x1="509" x2="645" y1="716.5" y2="716.5"/><text fill="#000000" font-family="Courier" font-size="10" lengthAdjust="spacingAndGlyphs" textLength="84" x="514" y="730.5">State: boolean</text><text fill="#000000" font-family="Courier" font-size="10" lengthAdjust="spacingAndGlyphs" textLength="126" x="514" y="742.1406">DefaultState: boolean</text><line style="stroke: #A80036; stroke-width: 1.5;" x1="509" x2="645" y1="747.7813" y2="747.7813"/><rect fill="#FEFECE" filter="url(#f1)" height="78.9219" style="stroke: #A80036; stroke-width: 1.5;" width="144" x="681" y="682.5"/><ellipse cx="705.7" cy="696.5" fill="#1E90FF" rx="9" ry="9" style="stroke: #A80036; stroke-width: 1.0;"/><path d="M706.9813,699.7969 Q706.6375,699.9688 706.2625,700.0547 Q705.8875,700.1406 705.4656,700.1406 Q703.9969,700.1406 703.2234,699.1719 Q702.45,698.2031 702.45,696.3594 Q702.45,694.5156 703.2234,693.5469 Q703.9969,692.5781 705.4656,692.5781 Q705.8875,692.5781 706.2703,692.6641 Q706.6531,692.75 706.9813,692.9219 L706.9813,694.5313 Q706.6063,694.1875 706.2547,694.0313 Q705.9031,693.875 705.5438,693.875 Q704.7469,693.875 704.3406,694.5 Q703.9344,695.125 703.9344,696.3594 Q703.9344,697.5938 704.3406,698.2188 Q704.7469,698.8438 705.5438,698.8438 Q705.9031,698.8438 706.2547,698.6875 Q706.6063,698.5313 706.9813,698.1875 L706.9813,699.7969 Z "/><text fill="#000000" font-family="Courier" font-size="10" lengthAdjust="spacingAndGlyphs" textLength="90" x="720.3" y="700.6797">LMI_SELinuxPort</text><line style="stroke: #A80036; stroke-width: 1.5;" x1="682" x2="824" y1="710.5" y2="710.5"/><text fill="#000000" font-family="Courier" font-size="10" lengthAdjust="spacingAndGlyphs" textLength="132" x="687" y="724.5">SELinuxContext: string</text><text fill="#000000" font-family="Courier" font-size="10" lengthAdjust="spacingAndGlyphs" textLength="96" x="687" y="736.1406">Protocol: uint16</text><text fill="#000000" font-family="Courier" font-size="10" lengthAdjust="spacingAndGlyphs" textLength="90" x="687" y="747.7813">Ports: string[]</text><line style="stroke: #A80036; stroke-width: 1.5;" x1="682" x2="824" y1="753.4219" y2="753.4219"/><rect fill="#FEFECE" filter="url(#f1)" height="44" style="stroke: #A80036; stroke-width: 1.5;" width="100" x="267" y="8"/><ellipse cx="280" cy="22" fill="#ADD1B2" rx="9" ry="9" style="stroke: #A80036; stroke-width: 1.0;"/><path d="M281.2813,25.2969 Q280.9375,25.4688 280.5625,25.5547 Q280.1875,25.6406 279.7656,25.6406 Q278.2969,25.6406 277.5234,24.6719 Q276.75,23.7031 276.75,21.8594 Q276.75,20.0156 277.5234,19.0469 Q278.2969,18.0781 279.7656,18.0781 Q280.1875,18.0781 280.5703,18.1641 Q280.9531,18.25 281.2813,18.4219 L281.2813,20.0313 Q280.9063,19.6875 280.5547,19.5313 Q280.2031,19.375 279.8438,19.375 Q279.0469,19.375 278.6406,20 Q278.2344,20.625 278.2344,21.8594 Q278.2344,23.0938 278.6406,23.7188 Q279.0469,24.3438 279.8438,24.3438 Q280.2031,24.3438 280.5547,24.1875 Q280.9063,24.0313 281.2813,23.6875 L281.2813,25.2969 Z "/><text fill="#000000" font-family="Courier" font-size="10" lengthAdjust="spacingAndGlyphs" textLength="72" x="292" y="26.1797">LMI_UnixFile</text><line style="stroke: #A80036; stroke-width: 1.5;" x1="268" x2="366" y1="36" y2="36"/><line style="stroke: #A80036; stroke-width: 1.5;" x1="268" x2="366" y1="44" y2="44"/><rect fill="#FEFECE" filter="url(#f1)" height="44" style="stroke: #A80036; stroke-width: 1.5;" width="94" x="408" y="112"/><ellipse cx="421" cy="126" fill="#ADD1B2" rx="9" ry="9" style="stroke: #A80036; stroke-width: 1.0;"/><path d="M422.2813,129.2969 Q421.9375,129.4688 421.5625,129.5547 Q421.1875,129.6406 420.7656,129.6406 Q419.2969,129.6406 418.5234,128.6719 Q417.75,127.7031 417.75,125.8594 Q417.75,124.0156 418.5234,123.0469 Q419.2969,122.0781 420.7656,122.0781 Q421.1875,122.0781 421.5703,122.1641 Q421.9531,122.25 422.2813,122.4219 L422.2813,124.0313 Q421.9063,123.6875 421.5547,123.5313 Q421.2031,123.375 420.8438,123.375 Q420.0469,123.375 419.6406,124 Q419.2344,124.625 419.2344,125.8594 Q419.2344,127.0938 419.6406,127.7188 Q420.0469,128.3438 420.8438,128.3438 Q421.2031,128.3438 421.5547,128.1875 Q421.9063,128.0313 422.2813,127.6875 L422.2813,129.2969 Z "/><text fill="#000000" font-family="Courier" font-size="10" lengthAdjust="spacingAndGlyphs" textLength="66" x="433" y="130.1797">CIM_Service</text><line style="stroke: #A80036; stroke-width: 1.5;" x1="409" x2="501" y1="140" y2="140"/><line style="stroke: #A80036; stroke-width: 1.5;" x1="409" x2="501" y1="148" y2="148"/><rect fill="#FEFECE" filter="url(#f1)" height="172.7656" style="stroke: #A80036; stroke-width: 1.5;" width="606" x="6" y="216.5"/><ellipse cx="251.25" cy="230.5" fill="#1E90FF" rx="9" ry="9" style="stroke: #A80036; stroke-width: 1.0;"/><path d="M252.5313,233.7969 Q252.1875,233.9688 251.8125,234.0547 Q251.4375,234.1406 251.0156,234.1406 Q249.5469,234.1406 248.7734,233.1719 Q248,232.2031 248,230.3594 Q248,228.5156 248.7734,227.5469 Q249.5469,226.5781 251.0156,226.5781 Q251.4375,226.5781 251.8203,226.6641 Q252.2031,226.75 252.5313,226.9219 L252.5313,228.5313 Q252.1563,228.1875 251.8047,228.0313 Q251.4531,227.875 251.0938,227.875 Q250.2969,227.875 249.8906,228.5 Q249.4844,229.125 249.4844,230.3594 Q249.4844,231.5938 249.8906,232.2188 Q250.2969,232.8438 251.0938,232.8438 Q251.4531,232.8438 251.8047,232.6875 Q252.1563,232.5313 252.5313,232.1875 L252.5313,233.7969 Z "/><text fill="#000000" font-family="Courier" font-size="10" lengthAdjust="spacingAndGlyphs" textLength="108" x="268.75" y="234.6797">LMI_SELinuxService</text><line style="stroke: #A80036; stroke-width: 1.5;" x1="7" x2="611" y1="244.5" y2="244.5"/><text fill="#000000" font-family="Courier" font-size="10" lengthAdjust="spacingAndGlyphs" textLength="120" x="12" y="258.5">SELinuxState: uint16</text><text fill="#000000" font-family="Courier" font-size="10" lengthAdjust="spacingAndGlyphs" textLength="162" x="12" y="270.1406">SELinuxDefaultState: uint16</text><text fill="#000000" font-family="Courier" font-size="10" lengthAdjust="spacingAndGlyphs" textLength="108" x="12" y="281.7813">PolicyType: string</text><text fill="#000000" font-family="Courier" font-size="10" lengthAdjust="spacingAndGlyphs" textLength="126" x="12" y="293.4219">PolicyVersion: uint32</text><line style="stroke: #A80036; stroke-width: 1.0;" x1="7" x2="611" y1="299.0625" y2="299.0625"/><ellipse cx="17" cy="310.3828" fill="#84BE84" rx="3" ry="3" style="stroke: #038048; stroke-width: 1.0;"/><text fill="#000000" font-family="Courier" font-size="10" lengthAdjust="spacingAndGlyphs" textLength="438" x="24" y="313.0625">SetSELinuxState(uint16 NewState, boolean MakeDefault): ref LMI_SELinuxJob</text><line style="stroke: #A80036; stroke-width: 1.0; stroke-dasharray: 1.0,2.0;" x1="7" x2="611" y1="318.7031" y2="318.7031"/><ellipse cx="17" cy="330.0234" fill="#84BE84" rx="3" ry="3" style="stroke: #038048; stroke-width: 1.0;"/><text fill="#000000" font-family="Courier" font-size="10" lengthAdjust="spacingAndGlyphs" textLength="468" x="24" y="332.7031">SetPortLabel(ref LMI_SELinuxPort Target, string PortRange): ref LMI_SELinuxJob</text><ellipse cx="17" cy="341.6641" fill="#84BE84" rx="3" ry="3" style="stroke: #038048; stroke-width: 1.0;"/><text fill="#000000" font-family="Courier" font-size="10" lengthAdjust="spacingAndGlyphs" textLength="426" x="24" y="344.3438">SetFileLabel(ref LMI_UnixFile Target, string Label): ref LMI_SELinuxJob</text><line style="stroke: #A80036; stroke-width: 1.0; stroke-dasharray: 1.0,2.0;" x1="7" x2="611" y1="349.9844" y2="349.9844"/><ellipse cx="17" cy="361.3047" fill="#84BE84" rx="3" ry="3" style="stroke: #038048; stroke-width: 1.0;"/><text fill="#000000" font-family="Courier" font-size="10" lengthAdjust="spacingAndGlyphs" textLength="582" x="24" y="363.9844">SetBoolean(ref LMI_SELinuxBoolean Target, boolean Value, boolean MakeDefault): ref LMI_SELinuxJob</text><line style="stroke: #A80036; stroke-width: 1.0; stroke-dasharray: 1.0,2.0;" x1="7" x2="611" y1="369.625" y2="369.625"/><ellipse cx="17" cy="380.9453" fill="#84BE84" rx="3" ry="3" style="stroke: #038048; stroke-width: 1.0;"/><text fill="#000000" font-family="Courier" font-size="10" lengthAdjust="spacingAndGlyphs" textLength="570" x="24" y="383.625">RestoreLabels(ref LMI_UnixFile Target, uint16 Action, boolean Recursively) : ref LMI_SELinuxJob</text><rect fill="#FEFECE" filter="url(#f1)" height="44" style="stroke: #A80036; stroke-width: 1.5;" width="118" x="711" y="112"/><ellipse cx="724" cy="126" fill="#ADD1B2" rx="9" ry="9" style="stroke: #A80036; stroke-width: 1.0;"/><path d="M725.2813,129.2969 Q724.9375,129.4688 724.5625,129.5547 Q724.1875,129.6406 723.7656,129.6406 Q722.2969,129.6406 721.5234,128.6719 Q720.75,127.7031 720.75,125.8594 Q720.75,124.0156 721.5234,123.0469 Q722.2969,122.0781 723.7656,122.0781 Q724.1875,122.0781 724.5703,122.1641 Q724.9531,122.25 725.2813,122.4219 L725.2813,124.0313 Q724.9063,123.6875 724.5547,123.5313 Q724.2031,123.375 723.8438,123.375 Q723.0469,123.375 722.6406,124 Q722.2344,124.625 722.2344,125.8594 Q722.2344,127.0938 722.6406,127.7188 Q723.0469,128.3438 723.8438,128.3438 Q724.2031,128.3438 724.5547,128.1875 Q724.9063,128.0313 725.2813,127.6875 L725.2813,129.2969 Z "/><text fill="#000000" font-family="Courier" font-size="10" lengthAdjust="spacingAndGlyphs" textLength="90" x="736" y="130.1797">LMI_ConcreteJob</text><line style="stroke: #A80036; stroke-width: 1.5;" x1="712" x2="828" y1="140" y2="140"/><line style="stroke: #A80036; stroke-width: 1.5;" x1="712" x2="828" y1="148" y2="148"/><rect fill="#FEFECE" filter="url(#f1)" height="44" style="stroke: #A80036; stroke-width: 1.5;" width="112" x="714" y="281"/><ellipse cx="727" cy="295" fill="#1E90FF" rx="9" ry="9" style="stroke: #A80036; stroke-width: 1.0;"/><path d="M728.2813,298.2969 Q727.9375,298.4688 727.5625,298.5547 Q727.1875,298.6406 726.7656,298.6406 Q725.2969,298.6406 724.5234,297.6719 Q723.75,296.7031 723.75,294.8594 Q723.75,293.0156 724.5234,292.0469 Q725.2969,291.0781 726.7656,291.0781 Q727.1875,291.0781 727.5703,291.1641 Q727.9531,291.25 728.2813,291.4219 L728.2813,293.0313 Q727.9063,292.6875 727.5547,292.5313 Q727.2031,292.375 726.8438,292.375 Q726.0469,292.375 725.6406,293 Q725.2344,293.625 725.2344,294.8594 Q725.2344,296.0938 725.6406,296.7188 Q726.0469,297.3438 726.8438,297.3438 Q727.2031,297.3438 727.5547,297.1875 Q727.9063,297.0313 728.2813,296.6875 L728.2813,298.2969 Z "/><text fill="#000000" font-family="Courier" font-size="10" lengthAdjust="spacingAndGlyphs" textLength="84" x="739" y="299.1797">LMI_SELinuxJob</text><line style="stroke: #A80036; stroke-width: 1.5;" x1="715" x2="825" y1="309" y2="309"/><line style="stroke: #A80036; stroke-width: 1.5;" x1="715" x2="825" y1="317" y2="317"/><rect fill="#FEFECE" filter="url(#f1)" height="44" style="stroke: #A80036; stroke-width: 1.5;" width="160" x="861" y="281"/><ellipse cx="874" cy="295" fill="#ADD1B2" rx="9" ry="9" style="stroke: #A80036; stroke-width: 1.0;"/><path d="M875.2813,298.2969 Q874.9375,298.4688 874.5625,298.5547 Q874.1875,298.6406 873.7656,298.6406 Q872.2969,298.6406 871.5234,297.6719 Q870.75,296.7031 870.75,294.8594 Q870.75,293.0156 871.5234,292.0469 Q872.2969,291.0781 873.7656,291.0781 Q874.1875,291.0781 874.5703,291.1641 Q874.9531,291.25 875.2813,291.4219 L875.2813,293.0313 Q874.9063,292.6875 874.5547,292.5313 Q874.2031,292.375 873.8438,292.375 Q873.0469,292.375 872.6406,293 Q872.2344,293.625 872.2344,294.8594 Q872.2344,296.0938 872.6406,296.7188 Q873.0469,297.3438 873.8438,297.3438 Q874.2031,297.3438 874.5547,297.1875 Q874.9063,297.0313 875.2813,296.6875 L875.2813,298.2969 Z "/><text fill="#000000" font-family="Courier" font-size="10" lengthAdjust="spacingAndGlyphs" textLength="132" x="886" y="299.1797">CIM_AffectedJobElement</text><line style="stroke: #A80036; stroke-width: 1.5;" x1="862" x2="1020" y1="309" y2="309"/><line style="stroke: #A80036; stroke-width: 1.5;" x1="862" x2="1020" y1="317" y2="317"/><rect fill="#FEFECE" filter="url(#f1)" height="44" style="stroke: #A80036; stroke-width: 1.5;" width="202" x="840" y="462"/><ellipse cx="853" cy="476" fill="#1E90FF" rx="9" ry="9" style="stroke: #A80036; stroke-width: 1.0;"/><path d="M854.2813,479.2969 Q853.9375,479.4688 853.5625,479.5547 Q853.1875,479.6406 852.7656,479.6406 Q851.2969,479.6406 850.5234,478.6719 Q849.75,477.7031 849.75,475.8594 Q849.75,474.0156 850.5234,473.0469 Q851.2969,472.0781 852.7656,472.0781 Q853.1875,472.0781 853.5703,472.1641 Q853.9531,472.25 854.2813,472.4219 L854.2813,474.0313 Q853.9063,473.6875 853.5547,473.5313 Q853.2031,473.375 852.8438,473.375 Q852.0469,473.375 851.6406,474 Q851.2344,474.625 851.2344,475.8594 Q851.2344,477.0938 851.6406,477.7188 Q852.0469,478.3438 852.8438,478.3438 Q853.2031,478.3438 853.5547,478.1875 Q853.9063,478.0313 854.2813,477.6875 L854.2813,479.2969 Z "/><text fill="#000000" font-family="Courier" font-size="10" lengthAdjust="spacingAndGlyphs" textLength="174" x="865" y="480.1797">LMI_AffectedSELinuxJobElement</text><line style="stroke: #A80036; stroke-width: 1.5;" x1="841" x2="1041" y1="490" y2="490"/><line style="stroke: #A80036; stroke-width: 1.5;" x1="841" x2="1041" y1="498" y2="498"/><ellipse cx="770" cy="484" fill="#000000" rx="2" ry="2" style="stroke: none; stroke-width: 1.0;"/><rect fill="#FEFECE" filter="url(#f1)" height="67.2813" style="stroke: #A80036; stroke-width: 1.5;" width="216" x="346" y="450.5"/><ellipse cx="368" cy="464.5" fill="#1E90FF" rx="9" ry="9" style="stroke: #A80036; stroke-width: 1.0;"/><path d="M369.2813,467.7969 Q368.9375,467.9688 368.5625,468.0547 Q368.1875,468.1406 367.7656,468.1406 Q366.2969,468.1406 365.5234,467.1719 Q364.75,466.2031 364.75,464.3594 Q364.75,462.5156 365.5234,461.5469 Q366.2969,460.5781 367.7656,460.5781 Q368.1875,460.5781 368.5703,460.6641 Q368.9531,460.75 369.2813,460.9219 L369.2813,462.5313 Q368.9063,462.1875 368.5547,462.0313 Q368.2031,461.875 367.8438,461.875 Q367.0469,461.875 366.6406,462.5 Q366.2344,463.125 366.2344,464.3594 Q366.2344,465.5938 366.6406,466.2188 Q367.0469,466.8438 367.8438,466.8438 Q368.2031,466.8438 368.5547,466.6875 Q368.9063,466.5313 369.2813,466.1875 L369.2813,467.7969 Z "/><text fill="#000000" font-family="Courier" font-size="10" lengthAdjust="spacingAndGlyphs" textLength="168" x="382" y="468.6797">LMI_SELinuxServiceHasElement</text><line style="stroke: #A80036; stroke-width: 1.5;" x1="347" x2="561" y1="478.5" y2="478.5"/><text fill="#000000" font-family="Courier" font-size="10" lengthAdjust="spacingAndGlyphs" textLength="204" x="352" y="492.5">Antecedent: ref LMI_SELinuxElement</text><text fill="#000000" font-family="Courier" font-size="10" lengthAdjust="spacingAndGlyphs" textLength="198" x="352" y="504.1406">Dependent: ref LMI_SELinuxService</text><line style="stroke: #A80036; stroke-width: 1.5;" x1="347" x2="561" y1="509.7813" y2="509.7813"/><ellipse cx="309" cy="484" fill="#000000" rx="2" ry="2" style="stroke: none; stroke-width: 1.0;"/><rect fill="#FEFECE" filter="url(#f1)" height="44" style="stroke: #A80036; stroke-width: 1.5;" width="172" x="201" y="112"/><ellipse cx="214" cy="126" fill="#1E90FF" rx="9" ry="9" style="stroke: #A80036; stroke-width: 1.0;"/><path d="M215.2813,129.2969 Q214.9375,129.4688 214.5625,129.5547 Q214.1875,129.6406 213.7656,129.6406 Q212.2969,129.6406 211.5234,128.6719 Q210.75,127.7031 210.75,125.8594 Q210.75,124.0156 211.5234,123.0469 Q212.2969,122.0781 213.7656,122.0781 Q214.1875,122.0781 214.5703,122.1641 Q214.9531,122.25 215.2813,122.4219 L215.2813,124.0313 Q214.9063,123.6875 214.5547,123.5313 Q214.2031,123.375 213.8438,123.375 Q213.0469,123.375 212.6406,124 Q212.2344,124.625 212.2344,125.8594 Q212.2344,127.0938 212.6406,127.7188 Q213.0469,128.3438 213.8438,128.3438 Q214.2031,128.3438 214.5547,128.1875 Q214.9063,128.0313 215.2813,127.6875 L215.2813,129.2969 Z "/><text fill="#000000" font-family="Courier" font-size="10" lengthAdjust="spacingAndGlyphs" textLength="144" x="226" y="130.1797">LMI_HostedSELinuxService</text><line style="stroke: #A80036; stroke-width: 1.5;" x1="202" x2="372" y1="140" y2="140"/><line style="stroke: #A80036; stroke-width: 1.5;" x1="202" x2="372" y1="148" y2="148"/><ellipse cx="164" cy="134" fill="#000000" rx="2" ry="2" style="stroke: none; stroke-width: 1.0;"/><path d="M665,526.32 C665,543.833 665,563.488 665,577.938 " fill="none" style="stroke: #A80036; stroke-width: 1.0;"/><polygon fill="none" points="658,526.175,665,506.175,672,526.175,658,526.175" style="stroke: #A80036; stroke-width: 1.0;"/><path d="M637.471,638.539 C625.779,654.483 612.273,672.8999 600.996,688.2788 " fill="none" style="stroke: #A80036; stroke-width: 1.0;"/><polygon fill="none" points="631.998,634.166,649.47,622.177,643.287,642.445,631.998,634.166" style="stroke: #A80036; stroke-width: 1.0;"/><path d="M692.479,638.472 C702.653,652.346 714.206,668.0995 724.472,682.0977 " fill="none" style="stroke: #A80036; stroke-width: 1.0;"/><polygon fill="none" points="686.713,642.445,680.53,622.177,698.002,634.166,686.713,642.445" style="stroke: #A80036; stroke-width: 1.0;"/><path d="M423.015,171.586 C411.375,184.9 397.676,200.57 383.886,216.343 " fill="none" style="stroke: #A80036; stroke-width: 1.0;"/><polygon fill="none" points="418.075,166.6,436.509,156.151,428.615,175.815,418.075,166.6" style="stroke: #A80036; stroke-width: 1.0;"/><path d="M770,176.32 C770,209.437 770,254.56 770,280.758 " fill="none" style="stroke: #A80036; stroke-width: 1.0;"/><polygon fill="none" points="763,176.151,770,156.151,777,176.151,763,176.151" style="stroke: #A80036; stroke-width: 1.0;"/><path d="M941,345.35 C941,381.725 941,433.21 941,461.791 " fill="none" style="stroke: #A80036; stroke-width: 1.0;"/><polygon fill="none" points="934,345.237,941,325.237,948,345.237,934,345.237" style="stroke: #A80036; stroke-width: 1.0;"/><path d="M770,325.237 C770,365.868 770,452.714 770,476.732 " fill="none" style="stroke: #A80036; stroke-width: 1.0;"/><path d="M769.514,486.097 C767.568,490.42 760.019,506.59 751,518 C734.564,538.794 712.808,559.234 695.29,574.38 " fill="none" style="stroke: #A80036; stroke-width: 1.0;"/><path d="M772.004,484 C792.987,484 813.969,484 834.952,484 " fill="none" style="stroke: #A80036; stroke-width: 1.0; stroke-dasharray: 7.0,7.0;"/><path d="M309,389.568 C309,425.41 309,462.094 309,476.569 " fill="none" style="stroke: #A80036; stroke-width: 1.0;"/><path d="M309.261,486.002 C310.488,490.517 316.141,509.131 328,518 C405.411,575.893 518.372,593.025 591.783,597.754 " fill="none" style="stroke: #A80036; stroke-width: 1.0;"/><path d="M311.266,484 C321.078,484 330.89,484 340.703,484 " fill="none" style="stroke: #A80036; stroke-width: 1.0; stroke-dasharray: 7.0,7.0;"/><path d="M164,52.134 C164,75.614 164,112.133 164,126.695 " fill="none" style="stroke: #A80036; stroke-width: 1.0;"/><path d="M164.926,136.066 C170.488,142.472 200.265,176.767 231.316,212.53 " fill="none" style="stroke: #A80036; stroke-width: 1.0;"/><path d="M166.402,134 C176.164,134 185.925,134 195.687,134 " fill="none" style="stroke: #A80036; stroke-width: 1.0; stroke-dasharray: 7.0,7.0;"/></g></svg>