<?xml version="1.0" encoding="UTF-8" standalone="yes"?><svg xmlns="http://www.w3.org/2000/svg" xmlns:xlink="http://www.w3.org/1999/xlink" height="767pt" style="width:1020px;height:767px;" version="1.1" viewBox="0 0 1020 767" width="1020pt"><defs><filter height="300%" id="f1" width="300%" x="-1" y="-1"><feGaussianBlur result="blurOut" stdDeviation="2.0"/><feColorMatrix in="blurOut" result="blurOut2" type="matrix" values="0 0 0 0 0 0 0 0 0 0 0 0 0 0 0 0 0 0 .4 0"/><feOffset dx="4.0" dy="4.0" in="blurOut2" result="blurOut3"/><feBlend in="SourceGraphic" in2="blurOut3" mode="normal"/></filter></defs><g><rect fill="#FEFECE" filter="url(#f1)" height="44" style="stroke: #A80036; stroke-width: 1.5;" width="136" x="240" y="8"/><ellipse cx="253" cy="22" fill="#ADD1B2" rx="9" ry="9" style="stroke: #A80036; stroke-width: 1.0;"/><path d="M254.2813,25.2969 Q253.9375,25.4688 253.5625,25.5547 Q253.1875,25.6406 252.7656,25.6406 Q251.2969,25.6406 250.5234,24.6719 Q249.75,23.7031 249.75,21.8594 Q249.75,20.0156 250.5234,19.0469 Q251.2969,18.0781 252.7656,18.0781 Q253.1875,18.0781 253.5703,18.1641 Q253.9531,18.25 254.2813,18.4219 L254.2813,20.0313 Q253.9063,19.6875 253.5547,19.5313 Q253.2031,19.375 252.8438,19.375 Q252.0469,19.375 251.6406,20 Q251.2344,20.625 251.2344,21.8594 Q251.2344,23.0938 251.6406,23.7188 Q252.0469,24.3438 252.8438,24.3438 Q253.2031,24.3438 253.5547,24.1875 Q253.9063,24.0313 254.2813,23.6875 L254.2813,25.2969 Z "/><text fill="#000000" font-family="Courier" font-size="10" lengthAdjust="spacingAndGlyphs" textLength="108" x="265" y="26.1797">CIM_ComputerSystem</text><line style="stroke: #A80036; stroke-width: 1.5;" x1="241" x2="375" y1="36" y2="36"/><line style="stroke: #A80036; stroke-width: 1.5;" x1="241" x2="375" y1="44" y2="44"/><rect fill="#FEFECE" filter="url(#f1)" height="44" style="stroke: #A80036; stroke-width: 1.5;" width="136" x="597" y="460.5"/><ellipse cx="610" cy="474.5" fill="#ADD1B2" rx="9" ry="9" style="stroke: #A80036; stroke-width: 1.0;"/><path d="M611.2813,477.7969 Q610.9375,477.9688 610.5625,478.0547 Q610.1875,478.1406 609.7656,478.1406 Q608.2969,478.1406 607.5234,477.1719 Q606.75,476.2031 606.75,474.3594 Q606.75,472.5156 607.5234,471.5469 Q608.2969,470.5781 609.7656,470.5781 Q610.1875,470.5781 610.5703,470.6641 Q610.9531,470.75 611.2813,470.9219 L611.2813,472.5313 Q610.9063,472.1875 610.5547,472.0313 Q610.2031,471.875 609.8438,471.875 Q609.0469,471.875 608.6406,472.5 Q608.2344,473.125 608.2344,474.3594 Q608.2344,475.5938 608.6406,476.2188 Q609.0469,476.8438 609.8438,476.8438 Q610.2031,476.8438 610.5547,476.6875 Q610.9063,476.5313 611.2813,476.1875 L611.2813,477.7969 Z "/><text fill="#000000" font-family="Courier" font-size="10" lengthAdjust="spacingAndGlyphs" textLength="108" x="622" y="478.6797">CIM_ManagedElement</text><line style="stroke: #A80036; stroke-width: 1.5;" x1="598" x2="732" y1="488.5" y2="488.5"/><line style="stroke: #A80036; stroke-width: 1.5;" x1="598" x2="732" y1="496.5" y2="496.5"/><rect fill="#FEFECE" filter="url(#f1)" height="44" style="stroke: #A80036; stroke-width: 1.5;" width="136" x="597" y="576"/><ellipse cx="610" cy="590" fill="#1E90FF" rx="9" ry="9" style="stroke: #A80036; stroke-width: 1.0;"/><path d="M611.2813,593.2969 Q610.9375,593.4688 610.5625,593.5547 Q610.1875,593.6406 609.7656,593.6406 Q608.2969,593.6406 607.5234,592.6719 Q606.75,591.7031 606.75,589.8594 Q606.75,588.0156 607.5234,587.0469 Q608.2969,586.0781 609.7656,586.0781 Q610.1875,586.0781 610.5703,586.1641 Q610.9531,586.25 611.2813,586.4219 L611.2813,588.0313 Q610.9063,587.6875 610.5547,587.5313 Q610.2031,587.375 609.8438,587.375 Q609.0469,587.375 608.6406,588 Q608.2344,588.625 608.2344,589.8594 Q608.2344,591.0938 608.6406,591.7188 Q609.0469,592.3438 609.8438,592.3438 Q610.2031,592.3438 610.5547,592.1875 Q610.9063,592.0313 611.2813,591.6875 L611.2813,593.2969 Z "/><text fill="#000000" font-family="Courier" font-size="10" lengthAdjust="spacingAndGlyphs" textLength="108" x="622" y="594.1797">LMI_SELinuxElement</text><line style="stroke: #A80036; stroke-width: 1.5;" x1="598" x2="732" y1="604" y2="604"/><line style="stroke: #A80036; stroke-width: 1.5;" x1="598" x2="732" y1="612" y2="612"/><rect fill="#FEFECE" filter="url(#f1)" height="67.2813" style="stroke: #A80036; stroke-width: 1.5;" width="138" x="508" y="686"/><ellipse cx="521.9" cy="700" fill="#1E90FF" rx="9" ry="9" style="stroke: #A80036; stroke-width: 1.0;"/><path d="M523.1813,703.2969 Q522.8375,703.4688 522.4625,703.5547 Q522.0875,703.6406 521.6656,703.6406 Q520.1969,703.6406 519.4234,702.6719 Q518.65,701.7031 518.65,699.8594 Q518.65,698.0156 519.4234,697.0469 Q520.1969,696.0781 521.6656,696.0781 Q522.0875,696.0781 522.4703,696.1641 Q522.8531,696.25 523.1813,696.4219 L523.1813,698.0313 Q522.8063,697.6875 522.4547,697.5313 Q522.1031,697.375 521.7438,697.375 Q520.9469,697.375 520.5406,698 Q520.1344,698.625 520.1344,699.8594 Q520.1344,701.0938 520.5406,701.7188 Q520.9469,702.3438 521.7438,702.3438 Q522.1031,702.3438 522.4547,702.1875 Q522.8063,702.0313 523.1813,701.6875 L523.1813,703.2969 Z "/><text fill="#000000" font-family="Courier" font-size="10" lengthAdjust="spacingAndGlyphs" textLength="108" x="534.1" y="704.1797">LMI_SELinuxBoolean</text><line style="stroke: #A80036; stroke-width: 1.5;" x1="509" x2="645" y1="714" y2="714"/><text fill="#000000" font-family="Courier" font-size="10" lengthAdjust="spacingAndGlyphs" textLength="84" x="514" y="728">State: boolean</text><text fill="#000000" font-family="Courier" font-size="10" lengthAdjust="spacingAndGlyphs" textLength="126" x="514" y="739.6406">DefaultState: boolean</text><line style="stroke: #A80036; stroke-width: 1.5;" x1="509" x2="645" y1="745.2813" y2="745.2813"/><rect fill="#FEFECE" filter="url(#f1)" height="78.9219" style="stroke: #A80036; stroke-width: 1.5;" width="144" x="681" y="680"/><ellipse cx="705.7" cy="694" fill="#1E90FF" rx="9" ry="9" style="stroke: #A80036; stroke-width: 1.0;"/><path d="M706.9813,697.2969 Q706.6375,697.4688 706.2625,697.5547 Q705.8875,697.6406 705.4656,697.6406 Q703.9969,697.6406 703.2234,696.6719 Q702.45,695.7031 702.45,693.8594 Q702.45,692.0156 703.2234,691.0469 Q703.9969,690.0781 705.4656,690.0781 Q705.8875,690.0781 706.2703,690.1641 Q706.6531,690.25 706.9813,690.4219 L706.9813,692.0313 Q706.6063,691.6875 706.2547,691.5313 Q705.9031,691.375 705.5438,691.375 Q704.7469,691.375 704.3406,692 Q703.9344,692.625 703.9344,693.8594 Q703.9344,695.0938 704.3406,695.7188 Q704.7469,696.3438 705.5438,696.3438 Q705.9031,696.3438 706.2547,696.1875 Q706.6063,696.0313 706.9813,695.6875 L706.9813,697.2969 Z "/><text fill="#000000" font-family="Courier" font-size="10" lengthAdjust="spacingAndGlyphs" textLength="90" x="720.3" y="698.1797">LMI_SELinuxPort</text><line style="stroke: #A80036; stroke-width: 1.5;" x1="682" x2="824" y1="708" y2="708"/><text fill="#000000" font-family="Courier" font-size="10" lengthAdjust="spacingAndGlyphs" textLength="132" x="687" y="722">SELinuxContext: string</text><text fill="#000000" font-family="Courier" font-size="10" lengthAdjust="spacingAndGlyphs" textLength="96" x="687" y="733.6406">Protocol: uint16</text><text fill="#000000" font-family="Courier" font-size="10" lengthAdjust="spacingAndGlyphs" textLength="90" x="687" y="745.2813">Ports: string[]</text><line style="stroke: #A80036; stroke-width: 1.5;" x1="682" x2="824" y1="750.9219" y2="750.9219"/><rect fill="#FEFECE" filter="url(#f1)" height="44" style="stroke: #A80036; stroke-width: 1.5;" width="100" x="411" y="8"/><ellipse cx="424" cy="22" fill="#ADD1B2" rx="9" ry="9" style="stroke: #A80036; stroke-width: 1.0;"/><path d="M425.2813,25.2969 Q424.9375,25.4688 424.5625,25.5547 Q424.1875,25.6406 423.7656,25.6406 Q422.2969,25.6406 421.5234,24.6719 Q420.75,23.7031 420.75,21.8594 Q420.75,20.0156 421.5234,19.0469 Q422.2969,18.0781 423.7656,18.0781 Q424.1875,18.0781 424.5703,18.1641 Q424.9531,18.25 425.2813,18.4219 L425.2813,20.0313 Q424.9063,19.6875 424.5547,19.5313 Q424.2031,19.375 423.8438,19.375 Q423.0469,19.375 422.6406,20 Q422.2344,20.625 422.2344,21.8594 Q422.2344,23.0938 422.6406,23.7188 Q423.0469,24.3438 423.8438,24.3438 Q424.2031,24.3438 424.5547,24.1875 Q424.9063,24.0313 425.2813,23.6875 L425.2813,25.2969 Z "/><text fill="#000000" font-family="Courier" font-size="10" lengthAdjust="spacingAndGlyphs" textLength="72" x="436" y="26.1797">LMI_UnixFile</text><line style="stroke: #A80036; stroke-width: 1.5;" x1="412" x2="510" y1="36" y2="36"/><line style="stroke: #A80036; stroke-width: 1.5;" x1="412" x2="510" y1="44" y2="44"/><rect fill="#FEFECE" filter="url(#f1)" height="44" style="stroke: #A80036; stroke-width: 1.5;" width="94" x="552" y="112"/><ellipse cx="565" cy="126" fill="#ADD1B2" rx="9" ry="9" style="stroke: #A80036; stroke-width: 1.0;"/><path d="M566.2813,129.2969 Q565.9375,129.4688 565.5625,129.5547 Q565.1875,129.6406 564.7656,129.6406 Q563.2969,129.6406 562.5234,128.6719 Q561.75,127.7031 561.75,125.8594 Q561.75,124.0156 562.5234,123.0469 Q563.2969,122.0781 564.7656,122.0781 Q565.1875,122.0781 565.5703,122.1641 Q565.9531,122.25 566.2813,122.4219 L566.2813,124.0313 Q565.9063,123.6875 565.5547,123.5313 Q565.2031,123.375 564.8438,123.375 Q564.0469,123.375 563.6406,124 Q563.2344,124.625 563.2344,125.8594 Q563.2344,127.0938 563.6406,127.7188 Q564.0469,128.3438 564.8438,128.3438 Q565.2031,128.3438 565.5547,128.1875 Q565.9063,128.0313 566.2813,127.6875 L566.2813,129.2969 Z "/><text fill="#000000" font-family="Courier" font-size="10" lengthAdjust="spacingAndGlyphs" textLength="66" x="577" y="130.1797">CIM_Service</text><line style="stroke: #A80036; stroke-width: 1.5;" x1="553" x2="645" y1="140" y2="140"/><line style="stroke: #A80036; stroke-width: 1.5;" x1="553" x2="645" y1="148" y2="148"/><rect fill="#FEFECE" filter="url(#f1)" height="172.7656" style="stroke: #A80036; stroke-width: 1.5;" width="606" x="6" y="216"/><ellipse cx="251.25" cy="230" fill="#1E90FF" rx="9" ry="9" style="stroke: #A80036; stroke-width: 1.0;"/><path d="M252.5313,233.2969 Q252.1875,233.4688 251.8125,233.5547 Q251.4375,233.6406 251.0156,233.6406 Q249.5469,233.6406 248.7734,232.6719 Q248,231.7031 248,229.8594 Q248,228.0156 248.7734,227.0469 Q249.5469,226.0781 251.0156,226.0781 Q251.4375,226.0781 251.8203,226.1641 Q252.2031,226.25 252.5313,226.4219 L252.5313,228.0313 Q252.1563,227.6875 251.8047,227.5313 Q251.4531,227.375 251.0938,227.375 Q250.2969,227.375 249.8906,228 Q249.4844,228.625 249.4844,229.8594 Q249.4844,231.0938 249.8906,231.7188 Q250.2969,232.3438 251.0938,232.3438 Q251.4531,232.3438 251.8047,232.1875 Q252.1563,232.0313 252.5313,231.6875 L252.5313,233.2969 Z "/><text fill="#000000" font-family="Courier" font-size="10" lengthAdjust="spacingAndGlyphs" textLength="108" x="268.75" y="234.1797">LMI_SELinuxService</text><line style="stroke: #A80036; stroke-width: 1.5;" x1="7" x2="611" y1="244" y2="244"/><text fill="#000000" font-family="Courier" font-size="10" lengthAdjust="spacingAndGlyphs" textLength="120" x="12" y="258">SELinuxState: uint16</text><text fill="#000000" font-family="Courier" font-size="10" lengthAdjust="spacingAndGlyphs" textLength="162" x="12" y="269.6406">SELinuxDefaultState: uint16</text><text fill="#000000" font-family="Courier" font-size="10" lengthAdjust="spacingAndGlyphs" textLength="108" x="12" y="281.2813">PolicyType: string</text><text fill="#000000" font-family="Courier" font-size="10" lengthAdjust="spacingAndGlyphs" textLength="126" x="12" y="292.9219">PolicyVersion: uint32</text><line style="stroke: #A80036; stroke-width: 1.0;" x1="7" x2="611" y1="298.5625" y2="298.5625"/><ellipse cx="17" cy="309.8828" fill="#84BE84" rx="3" ry="3" style="stroke: #038048; stroke-width: 1.0;"/><text fill="#000000" font-family="Courier" font-size="10" lengthAdjust="spacingAndGlyphs" textLength="438" x="24" y="312.5625">SetSELinuxState(uint16 NewState, boolean MakeDefault): ref LMI_SELinuxJob</text><line style="stroke: #A80036; stroke-width: 1.0; stroke-dasharray: 1.0,2.0;" x1="7" x2="611" y1="318.2031" y2="318.2031"/><ellipse cx="17" cy="329.5234" fill="#84BE84" rx="3" ry="3" style="stroke: #038048; stroke-width: 1.0;"/><text fill="#000000" font-family="Courier" font-size="10" lengthAdjust="spacingAndGlyphs" textLength="468" x="24" y="332.2031">SetPortLabel(ref LMI_SELinuxPort Target, string PortRange): ref LMI_SELinuxJob</text><ellipse cx="17" cy="341.1641" fill="#84BE84" rx="3" ry="3" style="stroke: #038048; stroke-width: 1.0;"/><text fill="#000000" font-family="Courier" font-size="10" lengthAdjust="spacingAndGlyphs" textLength="426" x="24" y="343.8438">SetFileLabel(ref LMI_UnixFile Target, string Label): ref LMI_SELinuxJob</text><line style="stroke: #A80036; stroke-width: 1.0; stroke-dasharray: 1.0,2.0;" x1="7" x2="611" y1="349.4844" y2="349.4844"/><ellipse cx="17" cy="360.8047" fill="#84BE84" rx="3" ry="3" style="stroke: #038048; stroke-width: 1.0;"/><text fill="#000000" font-family="Courier" font-size="10" lengthAdjust="spacingAndGlyphs" textLength="582" x="24" y="363.4844">SetBoolean(ref LMI_SELinuxBoolean Target, boolean Value, boolean MakeDefault): ref LMI_SELinuxJob</text><line style="stroke: #A80036; stroke-width: 1.0; stroke-dasharray: 1.0,2.0;" x1="7" x2="611" y1="369.125" y2="369.125"/><ellipse cx="17" cy="380.4453" fill="#84BE84" rx="3" ry="3" style="stroke: #038048; stroke-width: 1.0;"/><text fill="#000000" font-family="Courier" font-size="10" lengthAdjust="spacingAndGlyphs" textLength="570" x="24" y="383.125">RestoreLabels(ref LMI_UnixFile Target, uint16 Action, boolean Recursively) : ref LMI_SELinuxJob</text><rect fill="#FEFECE" filter="url(#f1)" height="44" style="stroke: #A80036; stroke-width: 1.5;" width="118" x="696" y="112"/><ellipse cx="709" cy="126" fill="#ADD1B2" rx="9" ry="9" style="stroke: #A80036; stroke-width: 1.0;"/><path d="M710.2813,129.2969 Q709.9375,129.4688 709.5625,129.5547 Q709.1875,129.6406 708.7656,129.6406 Q707.2969,129.6406 706.5234,128.6719 Q705.75,127.7031 705.75,125.8594 Q705.75,124.0156 706.5234,123.0469 Q707.2969,122.0781 708.7656,122.0781 Q709.1875,122.0781 709.5703,122.1641 Q709.9531,122.25 710.2813,122.4219 L710.2813,124.0313 Q709.9063,123.6875 709.5547,123.5313 Q709.2031,123.375 708.8438,123.375 Q708.0469,123.375 707.6406,124 Q707.2344,124.625 707.2344,125.8594 Q707.2344,127.0938 707.6406,127.7188 Q708.0469,128.3438 708.8438,128.3438 Q709.2031,128.3438 709.5547,128.1875 Q709.9063,128.0313 710.2813,127.6875 L710.2813,129.2969 Z "/><text fill="#000000" font-family="Courier" font-size="10" lengthAdjust="spacingAndGlyphs" textLength="90" x="721" y="130.1797">LMI_ConcreteJob</text><line style="stroke: #A80036; stroke-width: 1.5;" x1="697" x2="813" y1="140" y2="140"/><line style="stroke: #A80036; stroke-width: 1.5;" x1="697" x2="813" y1="148" y2="148"/><rect fill="#FEFECE" filter="url(#f1)" height="44" style="stroke: #A80036; stroke-width: 1.5;" width="112" x="699" y="280.5"/><ellipse cx="712" cy="294.5" fill="#1E90FF" rx="9" ry="9" style="stroke: #A80036; stroke-width: 1.0;"/><path d="M713.2813,297.7969 Q712.9375,297.9688 712.5625,298.0547 Q712.1875,298.1406 711.7656,298.1406 Q710.2969,298.1406 709.5234,297.1719 Q708.75,296.2031 708.75,294.3594 Q708.75,292.5156 709.5234,291.5469 Q710.2969,290.5781 711.7656,290.5781 Q712.1875,290.5781 712.5703,290.6641 Q712.9531,290.75 713.2813,290.9219 L713.2813,292.5313 Q712.9063,292.1875 712.5547,292.0313 Q712.2031,291.875 711.8438,291.875 Q711.0469,291.875 710.6406,292.5 Q710.2344,293.125 710.2344,294.3594 Q710.2344,295.5938 710.6406,296.2188 Q711.0469,296.8438 711.8438,296.8438 Q712.2031,296.8438 712.5547,296.6875 Q712.9063,296.5313 713.2813,296.1875 L713.2813,297.7969 Z "/><text fill="#000000" font-family="Courier" font-size="10" lengthAdjust="spacingAndGlyphs" textLength="84" x="724" y="298.6797">LMI_SELinuxJob</text><line style="stroke: #A80036; stroke-width: 1.5;" x1="700" x2="810" y1="308.5" y2="308.5"/><line style="stroke: #A80036; stroke-width: 1.5;" x1="700" x2="810" y1="316.5" y2="316.5"/><rect fill="#FEFECE" filter="url(#f1)" height="44" style="stroke: #A80036; stroke-width: 1.5;" width="160" x="846" y="280.5"/><ellipse cx="859" cy="294.5" fill="#ADD1B2" rx="9" ry="9" style="stroke: #A80036; stroke-width: 1.0;"/><path d="M860.2813,297.7969 Q859.9375,297.9688 859.5625,298.0547 Q859.1875,298.1406 858.7656,298.1406 Q857.2969,298.1406 856.5234,297.1719 Q855.75,296.2031 855.75,294.3594 Q855.75,292.5156 856.5234,291.5469 Q857.2969,290.5781 858.7656,290.5781 Q859.1875,290.5781 859.5703,290.6641 Q859.9531,290.75 860.2813,290.9219 L860.2813,292.5313 Q859.9063,292.1875 859.5547,292.0313 Q859.2031,291.875 858.8438,291.875 Q858.0469,291.875 857.6406,292.5 Q857.2344,293.125 857.2344,294.3594 Q857.2344,295.5938 857.6406,296.2188 Q858.0469,296.8438 858.8438,296.8438 Q859.2031,296.8438 859.5547,296.6875 Q859.9063,296.5313 860.2813,296.1875 L860.2813,297.7969 Z "/><text fill="#000000" font-family="Courier" font-size="10" lengthAdjust="spacingAndGlyphs" textLength="132" x="871" y="298.6797">CIM_AffectedJobElement</text><line style="stroke: #A80036; stroke-width: 1.5;" x1="847" x2="1005" y1="308.5" y2="308.5"/><line style="stroke: #A80036; stroke-width: 1.5;" x1="847" x2="1005" y1="316.5" y2="316.5"/><rect fill="#FEFECE" filter="url(#f1)" height="44" style="stroke: #A80036; stroke-width: 1.5;" width="202" x="809" y="460.5"/><ellipse cx="822" cy="474.5" fill="#1E90FF" rx="9" ry="9" style="stroke: #A80036; stroke-width: 1.0;"/><path d="M823.2813,477.7969 Q822.9375,477.9688 822.5625,478.0547 Q822.1875,478.1406 821.7656,478.1406 Q820.2969,478.1406 819.5234,477.1719 Q818.75,476.2031 818.75,474.3594 Q818.75,472.5156 819.5234,471.5469 Q820.2969,470.5781 821.7656,470.5781 Q822.1875,470.5781 822.5703,470.6641 Q822.9531,470.75 823.2813,470.9219 L823.2813,472.5313 Q822.9063,472.1875 822.5547,472.0313 Q822.2031,471.875 821.8438,471.875 Q821.0469,471.875 820.6406,472.5 Q820.2344,473.125 820.2344,474.3594 Q820.2344,475.5938 820.6406,476.2188 Q821.0469,476.8438 821.8438,476.8438 Q822.2031,476.8438 822.5547,476.6875 Q822.9063,476.5313 823.2813,476.1875 L823.2813,477.7969 Z "/><text fill="#000000" font-family="Courier" font-size="10" lengthAdjust="spacingAndGlyphs" textLength="174" x="834" y="478.6797">LMI_AffectedSELinuxJobElement</text><line style="stroke: #A80036; stroke-width: 1.5;" x1="810" x2="1010" y1="488.5" y2="488.5"/><line style="stroke: #A80036; stroke-width: 1.5;" x1="810" x2="1010" y1="496.5" y2="496.5"/><ellipse cx="770" cy="482.5" fill="#000000" rx="2" ry="2" style="stroke: none; stroke-width: 1.0;"/><rect fill="#FEFECE" filter="url(#f1)" height="67.2813" style="stroke: #A80036; stroke-width: 1.5;" width="216" x="346" y="449"/><ellipse cx="368" cy="463" fill="#1E90FF" rx="9" ry="9" style="stroke: #A80036; stroke-width: 1.0;"/><path d="M369.2813,466.2969 Q368.9375,466.4688 368.5625,466.5547 Q368.1875,466.6406 367.7656,466.6406 Q366.2969,466.6406 365.5234,465.6719 Q364.75,464.7031 364.75,462.8594 Q364.75,461.0156 365.5234,460.0469 Q366.2969,459.0781 367.7656,459.0781 Q368.1875,459.0781 368.5703,459.1641 Q368.9531,459.25 369.2813,459.4219 L369.2813,461.0313 Q368.9063,460.6875 368.5547,460.5313 Q368.2031,460.375 367.8438,460.375 Q367.0469,460.375 366.6406,461 Q366.2344,461.625 366.2344,462.8594 Q366.2344,464.0938 366.6406,464.7188 Q367.0469,465.3438 367.8438,465.3438 Q368.2031,465.3438 368.5547,465.1875 Q368.9063,465.0313 369.2813,464.6875 L369.2813,466.2969 Z "/><text fill="#000000" font-family="Courier" font-size="10" lengthAdjust="spacingAndGlyphs" textLength="168" x="382" y="467.1797">LMI_SELinuxServiceHasElement</text><line style="stroke: #A80036; stroke-width: 1.5;" x1="347" x2="561" y1="477" y2="477"/><text fill="#000000" font-family="Courier" font-size="10" lengthAdjust="spacingAndGlyphs" textLength="204" x="352" y="491">Antecedent: ref LMI_SELinuxElement</text><text fill="#000000" font-family="Courier" font-size="10" lengthAdjust="spacingAndGlyphs" textLength="198" x="352" y="502.6406">Dependent: ref LMI_SELinuxService</text><line style="stroke: #A80036; stroke-width: 1.5;" x1="347" x2="561" y1="508.2813" y2="508.2813"/><ellipse cx="309" cy="482.5" fill="#000000" rx="2" ry="2" style="stroke: none; stroke-width: 1.0;"/><rect fill="#FEFECE" filter="url(#f1)" height="44" style="stroke: #A80036; stroke-width: 1.5;" width="172" x="345" y="112"/><ellipse cx="358" cy="126" fill="#1E90FF" rx="9" ry="9" style="stroke: #A80036; stroke-width: 1.0;"/><path d="M359.2813,129.2969 Q358.9375,129.4688 358.5625,129.5547 Q358.1875,129.6406 357.7656,129.6406 Q356.2969,129.6406 355.5234,128.6719 Q354.75,127.7031 354.75,125.8594 Q354.75,124.0156 355.5234,123.0469 Q356.2969,122.0781 357.7656,122.0781 Q358.1875,122.0781 358.5703,122.1641 Q358.9531,122.25 359.2813,122.4219 L359.2813,124.0313 Q358.9063,123.6875 358.5547,123.5313 Q358.2031,123.375 357.8438,123.375 Q357.0469,123.375 356.6406,124 Q356.2344,124.625 356.2344,125.8594 Q356.2344,127.0938 356.6406,127.7188 Q357.0469,128.3438 357.8438,128.3438 Q358.2031,128.3438 358.5547,128.1875 Q358.9063,128.0313 359.2813,127.6875 L359.2813,129.2969 Z "/><text fill="#000000" font-family="Courier" font-size="10" lengthAdjust="spacingAndGlyphs" textLength="144" x="370" y="130.1797">LMI_HostedSELinuxService</text><line style="stroke: #A80036; stroke-width: 1.5;" x1="346" x2="516" y1="140" y2="140"/><line style="stroke: #A80036; stroke-width: 1.5;" x1="346" x2="516" y1="148" y2="148"/><ellipse cx="308" cy="134" fill="#000000" rx="2" ry="2" style="stroke: none; stroke-width: 1.0;"/><path d="M665,524.79 C665,542.033 665,561.337 665,575.645 " fill="none" style="stroke: #A80036; stroke-width: 1.0;"/><polygon fill="none" points="658,524.583,665,504.582,672,524.582,658,524.583" style="stroke: #A80036; stroke-width: 1.0;"/><path d="M637.471,636.383 C625.779,652.26 612.273,670.6003 600.996,685.9152 " fill="none" style="stroke: #A80036; stroke-width: 1.0;"/><polygon fill="none" points="631.974,632.043,649.47,620.089,643.247,640.344,631.974,632.043" style="stroke: #A80036; stroke-width: 1.0;"/><path d="M692.479,636.316 C702.653,650.132 714.206,665.8199 724.472,679.7598 " fill="none" style="stroke: #A80036; stroke-width: 1.0;"/><polygon fill="none" points="686.753,640.344,680.53,620.089,698.026,632.043,686.753,640.344" style="stroke: #A80036; stroke-width: 1.0;"/><path d="M544.907,166.057 C520.034,180.337 489.181,198.051 458.077,215.909 " fill="none" style="stroke: #A80036; stroke-width: 1.0;"/><polygon fill="none" points="541.441,159.975,562.271,156.087,548.412,172.116,541.441,159.975" style="stroke: #A80036; stroke-width: 1.0;"/><path d="M755,176.196 C755,209.215 755,254.202 755,280.322 " fill="none" style="stroke: #A80036; stroke-width: 1.0;"/><polygon fill="none" points="748,176.087,755,156.087,762,176.087,748,176.087" style="stroke: #A80036; stroke-width: 1.0;"/><path d="M922.304,344.619 C919.053,380.791 914.451,431.988 911.896,460.41 " fill="none" style="stroke: #A80036; stroke-width: 1.0;"/><polygon fill="none" points="915.339,343.911,924.102,324.618,929.283,345.164,915.339,343.911" style="stroke: #A80036; stroke-width: 1.0;"/><path d="M756.78,324.618 C760.505,368.821 768.865,468.028 769.895,480.256 " fill="none" style="stroke: #A80036; stroke-width: 1.0;"/><path d="M769.51,484.58 C767.55,488.834 759.954,504.749 751,516 C733.247,538.308 709.419,560.271 691.346,575.687 " fill="none" style="stroke: #A80036; stroke-width: 1.0;"/><path d="M772.188,482.5 C784.39,482.5 796.592,482.5 808.794,482.5 " fill="none" style="stroke: #A80036; stroke-width: 1.0; stroke-dasharray: 7.0,7.0;"/><path d="M309,389.111 C309,430.437 309,472.738 309,480.306 " fill="none" style="stroke: #A80036; stroke-width: 1.0;"/><path d="M309.265,484.487 C310.515,488.935 316.247,507.271 328,516 C407.344,574.93 523.601,591.585 596.741,595.953 " fill="none" style="stroke: #A80036; stroke-width: 1.0;"/><path d="M311.266,482.5 C322.788,482.5 334.311,482.5 345.834,482.5 " fill="none" style="stroke: #A80036; stroke-width: 1.0; stroke-dasharray: 7.0,7.0;"/><path d="M308,52.134 C308,79.21 308,123.625 308,131.715 " fill="none" style="stroke: #A80036; stroke-width: 1.0;"/><path d="M308.006,136.063 C308.046,142.655 308.263,178.866 308.485,215.735 " fill="none" style="stroke: #A80036; stroke-width: 1.0;"/><path d="M310.402,134 C321.865,134 333.328,134 344.792,134 " fill="none" style="stroke: #A80036; stroke-width: 1.0; stroke-dasharray: 7.0,7.0;"/></g></svg>